<svg width="90" height="90" viewBox="0 0 90 90" fill="none" xmlns="http://www.w3.org/2000/svg">
<path d="M11.25 15.48L45.0169 5.625L78.75 15.48V35.6888C78.7487 46.0454 75.4891 56.1392 69.4329 64.5405C63.3767 72.9419 54.8308 79.225 45.0056 82.5C35.1768 79.2264 26.6274 72.9427 20.5689 64.5393C14.5105 56.1359 11.2502 46.039 11.25 35.6794V15.48Z" fill="#008AFF" stroke="#008AFF" stroke-width="2" stroke-linejoin="round"/>
<mask id="mask0_2099_1084" style="mask-type:alpha" maskUnits="userSpaceOnUse" x="0" y="0" width="90" height="90">
<path d="M11.25 15.48L45.0169 5.625L78.75 15.48V35.6888C78.7487 46.0454 75.4891 56.1392 69.4329 64.5405C63.3767 72.9419 54.8308 79.225 45.0056 82.5C35.1768 79.2264 26.6274 72.9427 20.5689 64.5393C14.5105 56.1359 11.2502 46.039 11.25 35.6794V15.48Z" fill="#2FD5FA" stroke="#2FD5FA" stroke-width="2" stroke-linejoin="round"/>
</mask>
<g mask="url(#mask0_2099_1084)">
<rect x="45" y="-16.5" width="91.5" height="138" fill="#064071" fill-opacity="0.18"/>
<g clip-path="url(#clip0_2099_1084)">
<path d="M62.4141 35.7656C62.4141 36.3906 62.1953 36.9219 61.7578 37.3594L44.7891 54.3281L41.6016 57.5156C41.1641 57.9531 40.6328 58.1719 40.0078 58.1719C39.3828 58.1719 38.8516 57.9531 38.4141 57.5156L35.2266 54.3281L26.7422 45.8438C26.3047 45.4062 26.0859 44.875 26.0859 44.25C26.0859 43.625 26.3047 43.0938 26.7422 42.6562L29.9297 39.4688C30.3672 39.0312 30.8984 38.8125 31.5234 38.8125C32.1484 38.8125 32.6797 39.0312 33.1172 39.4688L40.0078 46.3828L55.3828 30.9844C55.8203 30.5469 56.3516 30.3281 56.9766 30.3281C57.6016 30.3281 58.1328 30.5469 58.5703 30.9844L61.7578 34.1719C62.1953 34.6094 62.4141 35.1406 62.4141 35.7656Z" fill="white"/>
</g>
</g>
<defs>
<clipPath id="clip0_2099_1084">
<rect width="37.5" height="30" fill="white" transform="translate(25.5 28.5)"/>
</clipPath>
</defs>
</svg>
