<svg width="587" height="441" viewBox="0 0 587 441" fill="none" xmlns="http://www.w3.org/2000/svg">
<g clip-path="url(#clip0_2608_782)">
<path d="M400.926 83.0291L67.6997 153.228L124.914 424.815L458.14 354.616L400.926 83.0291Z" fill="#FF64CE"/>
<path d="M378.49 468.221C375.914 477.311 371.143 485.628 364.597 492.441C358.051 499.253 349.93 504.352 340.95 507.288C313.545 516.267 283.13 534.128 275.515 562.324L324.086 671.22C324.554 672.269 325.271 673.188 326.173 673.898C327.075 674.609 328.136 675.09 329.265 675.301C330.394 675.511 331.557 675.444 332.655 675.106C333.753 674.768 334.752 674.169 335.567 673.36L403.261 606.007C404.377 604.899 405.093 603.451 405.297 601.892C405.501 600.332 405.181 598.749 404.388 597.391L381.232 557.865C419.599 530.731 426.78 445.766 425.326 396.621L386.269 388.561C386.319 419.717 384.329 447.31 378.49 468.221Z" fill="#008AFF"/>
<path d="M413.474 351.928C414.106 348.431 406.521 346.124 405.146 350.99C405.364 344.549 397.587 343.61 395.328 346.654C392.06 341.28 388.678 341.264 385.182 346.603C385.834 361.096 386.225 375.144 386.259 388.579L425.316 396.638C424.517 369.024 419.701 349.704 413.474 351.928Z" fill="#974245"/>
<path d="M305.43 558.883L310.77 619.492C306.314 617.539 301.883 615.516 297.529 613.421C285.853 607.888 274.5 601.698 263.525 594.88C209.049 560.894 166.09 509.622 152.521 420.351L191.311 410.001C198.285 463.976 236.606 508.071 268.802 534.528C273.584 538.445 278.218 541.974 282.571 545.081C291.684 551.524 299.658 556.249 305.43 558.883Z" fill="#008AFF"/>
<path d="M162.319 365.01C161.547 361.536 169.035 358.922 170.599 363.747C170.121 357.341 177.879 356.095 180.241 359.025C183.313 353.539 186.694 353.39 190.383 358.578C190.289 376.521 190.537 393.808 191.376 409.979L152.523 420.344C151.031 387.48 155.254 362.802 162.319 365.01Z" fill="#974245"/>
<path d="M362.935 226.497C347.689 175.71 295.662 144.113 242.854 155.237C229.578 158.001 216.982 163.371 205.795 171.035C194.608 178.7 185.052 188.506 177.68 199.888L194.395 210.784C200.344 201.606 208.055 193.699 217.081 187.52C226.107 181.342 236.269 177.015 246.978 174.79C289.013 165.933 330.461 190.644 343.344 230.622L324.353 234.625L364.212 279.057L382.77 222.319L362.935 226.497Z" fill="white"/>
<path d="M281.287 337.705C239.252 346.562 197.805 321.851 184.906 281.844L203.9 277.846L164.048 233.429L145.49 290.166L165.322 285.983C180.541 336.767 232.591 368.358 285.398 357.234C298.674 354.47 311.27 349.1 322.457 341.436C333.644 333.771 343.201 323.964 350.573 312.583L333.857 301.686C327.912 310.868 320.204 318.779 311.18 324.962C302.157 331.144 291.996 335.476 281.287 337.705Z" fill="white"/>
</g>
<defs>
<clipPath id="clip0_2608_782">
<rect width="403.918" height="729.413" fill="white" transform="translate(0 189.107) rotate(-27.9163)"/>
</clipPath>
</defs>
</svg>
