<svg width="517" height="439" viewBox="0 0 517 439" fill="none" xmlns="http://www.w3.org/2000/svg">
<g clip-path="url(#clip0_2613_788)">
<path d="M258.012 123.466L349.103 32.9582L324.751 107.672L416.642 31.8705" stroke="#E2C1FF" stroke-width="0.675388" stroke-linecap="round" stroke-linejoin="round"/>
<path d="M244.35 94.9576L269.843 58.638" stroke="#E2C1FF" stroke-width="0.675388" stroke-linecap="round" stroke-linejoin="round"/>
<path d="M280.176 179.024L356.962 132.848L330.64 177.05L430.917 125.571" stroke="#E2C1FF" stroke-width="0.675388" stroke-linecap="round" stroke-linejoin="round"/>
<path d="M270.824 150.646L304.917 129.313" stroke="#E2C1FF" stroke-width="0.675388" stroke-linecap="round" stroke-linejoin="round"/>
<path d="M286.71 210.549L331.075 204.974" stroke="#E2C1FF" stroke-width="0.675388" stroke-linecap="round" stroke-linejoin="round"/>
<path d="M78.6685 262.581C91.8708 254.485 96.0097 237.219 87.9131 224.016C79.8165 210.814 62.5503 206.675 49.3481 214.772C36.1459 222.869 32.007 240.135 40.1036 253.337C48.2002 266.539 65.4663 270.678 78.6685 262.581Z" fill="#FFF86D"/>
<path d="M233.981 219.367C256.147 205.773 263.096 176.784 249.502 154.618C235.908 132.453 206.919 125.504 184.753 139.097C162.587 152.691 155.638 181.68 169.232 203.846C182.826 226.012 211.815 232.961 233.981 219.367Z" fill="#FFF86D"/>
<path d="M143.114 234.37L114.306 243.863L142.174 328.426L170.982 318.932L143.114 234.37Z" fill="#E2C1FF"/>
<path d="M45.1028 207.469L68.6119 275.05L186.855 245.505L152.192 150.118L45.1028 207.469Z" fill="#9E97FF"/>
<path d="M60.773 209.338L110.072 184.558" stroke="white" stroke-width="0.675388" stroke-linecap="round" stroke-linejoin="round"/>
<path d="M152.191 150.119L198.331 68.6016L264.93 265.6L186.855 245.505L152.191 150.119Z" fill="#814EFF"/>
<path d="M163.327 149.642L191.722 102.709" stroke="white" stroke-width="0.675388" stroke-linecap="round" stroke-linejoin="round"/>
<path d="M132.45 274.598C132.823 274.906 133.187 275.239 133.543 275.598C135.595 272.456 143.456 272.145 146.437 279.499C147.093 274.616 155.059 275.584 159.998 280.491C174.609 294.223 180.089 320.577 178.137 351.962L129.532 337.615C131.287 317.443 129.509 298.454 122.497 282.724C119.644 276.45 127.164 270.225 132.45 274.598Z" fill="#FFBA9A"/>
<path d="M104.666 539.648L52.8476 503.307C74.5763 491.815 123.376 407.608 129.494 337.624L178.794 335.083C181.18 407.401 147.914 486.487 104.666 539.648Z" fill="#814EFF"/>
</g>
<defs>
<clipPath id="clip0_2613_788">
<rect width="428" height="576.146" fill="white" transform="translate(0 133.962) rotate(-18.2398)"/>
</clipPath>
</defs>
</svg>
