<svg width="652" height="395" viewBox="0 0 652 395" fill="none" xmlns="http://www.w3.org/2000/svg">
<g clip-path="url(#clip0_2603_718)">
<path d="M570.471 335.499C573.146 351.827 576.302 410.226 573.104 452.644C572.068 466.574 570.342 478.783 567.672 487.215C567.395 488.123 567.109 488.994 566.796 489.816L532.18 494.567C533.299 488.149 534.407 481.56 535.503 474.797C537.342 463.351 539.102 451.448 540.618 439.193C544.692 406.208 546.951 370.739 544.088 335.189L570.471 335.499Z" fill="#7D54B5"/>
<path d="M616.902 140.854L624.436 362.593L396.732 370.334L394.062 291.769C387.865 295.888 380.643 298.196 373.206 298.436C351.5 299.174 333.339 282.652 332.619 261.522C331.898 240.392 348.899 222.679 370.605 221.941C378.042 221.668 385.407 223.482 391.867 227.177L389.199 148.603L469.511 145.873C465.544 140.038 463.314 133.196 463.081 126.144C462.365 105.035 479.382 87.3008 501.067 86.5633C522.752 85.8259 540.937 102.363 541.654 123.477C541.898 130.527 540.145 137.502 536.598 143.6L616.902 140.854Z" fill="#FF64CE"/>
<path d="M479.127 173.433C494.139 172.859 506.666 163.436 518.791 154.317C521.421 152.34 524.145 150.291 526.825 148.392C530.432 145.829 534.074 143.502 537.752 141.412C537.973 140.94 538.175 140.472 538.385 140.028C534.225 142.355 530.192 144.903 526.304 147.661C523.616 149.566 520.889 151.62 518.249 153.604C506.24 162.637 493.823 171.981 479.094 172.535C462.02 173.179 447.472 161.269 439.323 146.891L438.307 146.926C441.607 152.947 445.95 158.336 451.131 162.842C459.635 170.141 469.316 173.804 479.127 173.433Z" fill="#FFEF08"/>
<path d="M594.11 226.393C583.142 229.914 571.801 233.55 562.38 239.914C540.624 254.605 530.062 284.815 536.682 313.38C541.008 332.051 551.905 349.713 568.031 364.531L569.329 364.489C552.98 349.661 541.9 331.934 537.555 313.179C531.014 284.969 541.429 255.146 562.882 240.657C572.198 234.368 583.479 230.749 594.383 227.247C602.984 224.499 611.737 221.671 619.508 217.504L619.476 216.555C611.839 220.676 603.115 223.484 594.11 226.393Z" fill="#FFEF08"/>
<path d="M363.992 297.681C373.831 284.576 387.238 275.825 401.47 273.961C410.033 272.837 418.899 274.079 427.468 275.281C438.166 276.778 449.219 278.328 459.709 275.247C475.119 270.715 486.09 257.123 494.903 246.207L578.915 142.142L577.731 142.184L494.219 245.639C483.49 258.928 473.471 270.263 459.463 274.383C449.19 277.412 438.22 275.874 427.604 274.388C418.974 273.179 410.047 271.925 401.366 273.07C386.794 274.98 373.053 283.982 363.042 297.481L363.992 297.681Z" fill="#FFEF08"/>
<path d="M442.682 347.773C427.678 342.703 411.419 341.695 395.849 344.49L395.881 345.396C411.336 342.597 427.488 343.586 442.391 348.62C454.339 352.717 465.328 359.204 474.688 367.685L475.99 367.642C466.39 358.775 455.045 352.009 442.682 347.773Z" fill="#FFEF08"/>
<path d="M487.898 319.525C487.654 319.689 487.419 319.868 487.196 320.061C486.136 318.02 481.377 317.35 479.11 321.637C479.011 318.626 474.105 318.725 470.795 321.411C461.064 328.863 456.103 344.54 455.365 363.776L485.821 358.037C485.994 345.656 488.243 334.211 493.477 325.072C495.568 321.425 491.376 317.174 487.898 319.525Z" fill="#974245"/>
<path d="M488.491 482.488L522.255 463.564C509.741 455.236 485.225 400.996 485.812 358.038L455.973 353.46C450.072 397.313 465.448 447.482 488.491 482.488Z" fill="#A366F7"/>
<path d="M256.974 252.51C253.863 275.194 270.218 296.171 293.508 299.368C301.49 300.483 309.625 299.341 316.992 296.071L305.413 380.443L60.9278 346.891L72.7853 260.432C64.6157 264.941 55.2039 266.679 45.9626 265.384C22.6762 262.187 6.32162 241.209 9.43252 218.526C12.5434 195.843 33.9493 180.049 57.2348 183.242C66.4811 184.483 75.0751 188.691 81.7252 195.234L93.6099 108.803L338.095 142.355L326.524 226.725C320.309 221.592 312.781 218.3 304.793 217.223C281.491 214.033 260.089 229.826 256.974 252.51Z" fill="#B784FF"/>
<path d="M63.1964 347.201L61.1196 345.499L60.9624 346.625L61.3554 346.949L63.1964 347.201Z" fill="white"/>
<path d="M70.9857 261.358C71.3017 261.2 71.6186 261.045 71.9328 260.878L38.6181 233.558L38.0014 234.307L70.9857 261.358Z" fill="white"/>
<path d="M11.1998 211.097C11.0906 211.426 10.9773 211.755 10.8771 212.086L37.2551 233.707L37.8678 232.958L11.1998 211.097Z" fill="white"/>
<path d="M198.335 365.745L200.172 365.999L150.448 325.238L149.831 325.988L198.335 365.745Z" fill="white"/>
<path d="M72.6508 261.468L72.4937 262.594L93.1686 279.541L93.7804 278.788L72.6508 261.468Z" fill="white"/>
<path d="M94.5542 279.353L93.939 280.104L149.11 325.314L149.725 324.564L94.5542 279.353Z" fill="white"/>
<path d="M196.287 269.297L195.672 270.048L250.835 315.269L251.45 314.518L196.287 269.297Z" fill="white"/>
<path d="M252.18 315.216L251.565 315.967L306.728 361.187L307.343 360.436L252.18 315.216Z" fill="white"/>
<path d="M140.363 223.512L139.748 224.263L194.911 269.483L195.526 268.733L140.363 223.512Z" fill="white"/>
<path d="M84.4514 177.657L84.0916 178.096L84.0257 178.563L138.999 223.628L139.615 222.875L84.4514 177.657Z" fill="white"/>
<path d="M307.931 362.099L308.079 361.026L307.492 361.739L307.931 362.099Z" fill="white"/>
<path d="M130.278 121.792L129.663 122.542L184.826 167.763L185.441 167.012L130.278 121.792Z" fill="white"/>
<path d="M118.703 112.249L116.863 112L128.92 121.88L129.536 121.126L118.703 112.249Z" fill="white"/>
<path d="M264.969 233.379C265.166 233.12 265.368 232.868 265.57 232.616L242.137 213.407L241.52 214.156L264.969 233.379Z" fill="white"/>
<path d="M188.751 168.713L188.132 169.466L243.478 214.941L244.096 214.188L188.751 168.713Z" fill="white"/>
<path d="M253.843 130.797L286.581 157.631L287.196 156.878L255.684 131.05L253.843 130.797Z" fill="white"/>
<path d="M330.994 194.037L331.15 192.907L287.946 157.494L287.33 158.248L330.994 194.037Z" fill="white"/>
<path d="M292.374 378.651L293.504 378.807L307.492 361.739L308.079 361.026L308.332 359.189L307.359 360.373L306.743 361.126L292.374 378.651Z" fill="white"/>
<path d="M208.348 367.119L209.477 367.292L251.583 315.925L252.2 315.175L272.472 290.445C272.216 290.244 271.958 290.034 271.726 289.823L251.451 314.559L250.834 315.308L208.348 367.119Z" fill="white"/>
<path d="M325.387 225.864L326.877 224.05L327.13 222.209L324.621 225.272C324.88 225.464 325.132 225.666 325.387 225.864Z" fill="white"/>
<path d="M241.363 212.795L240.746 213.545L195.529 268.709L194.912 269.459L149.699 324.622L149.082 325.372L124.312 355.589L125.442 355.745L149.831 325.988L150.448 325.239L195.666 270.075L196.283 269.325L241.5 214.161L242.112 213.408L287.33 158.248L287.946 157.494L304.171 137.703L303.041 137.546L287.197 156.878L286.581 157.631L241.363 212.795Z" fill="white"/>
<path d="M139.752 224.24L140.365 223.491L185.582 168.327L186.199 167.578L220.14 126.171L219.009 126.015L185.449 166.961L184.832 167.711L139.615 222.875L138.999 223.628L93.7805 278.788L93.1686 279.541L65.5472 313.235L65.2943 315.076L93.9174 280.154L94.5342 279.404L139.752 224.24Z" fill="white"/>
<path d="M21.9821 253.898L38.0095 234.344L38.6263 233.594L74.6381 189.636C74.3623 189.46 74.1 189.269 73.8211 189.098L37.8681 232.958L37.2553 233.707L21.2876 253.205C21.5252 253.419 21.7422 253.655 21.9821 253.898Z" fill="white"/>
<path d="M129.67 122.497L130.286 121.743L136.109 114.64L134.979 114.483L129.536 121.127L128.92 121.88L84.3453 176.259L84.0915 178.096L84.4512 177.657L129.67 122.497Z" fill="white"/>
<path d="M236.221 428.606C232.597 434.574 227.561 439.559 221.557 443.123C215.552 446.686 208.764 448.718 201.789 449.04C180.501 450.04 155.32 456.775 144.345 475.36L157.503 562.489C157.63 563.329 157.959 564.125 158.461 564.81C158.964 565.494 159.625 566.046 160.388 566.418C161.151 566.791 161.993 566.972 162.842 566.947C163.691 566.921 164.521 566.69 165.26 566.273L226.739 531.625C227.752 531.056 228.548 530.166 229 529.095C229.453 528.024 229.536 526.833 229.238 525.709L220.525 492.996C253.167 481.207 275.01 422.104 283.664 386.816L257.43 373.387C251.338 395.579 244.472 414.841 236.221 428.606Z" fill="#FF3CC1"/>
<path d="M284.009 352.638C285.148 350.271 280.2 347.135 278.263 350.334C279.686 345.789 274.331 343.589 272.123 345.308C270.852 340.838 268.446 340.16 264.905 343.275C262.516 353.726 260.029 363.81 257.409 373.387L283.664 386.816C288.51 366.989 288.888 352.283 284.009 352.638Z" fill="#974245"/>
<path d="M166.305 478.779L158.178 523.006C155.392 520.737 152.63 518.425 149.945 516.074C142.715 509.836 135.846 503.192 129.37 496.174C97.2611 461.239 76.7512 416.262 84.6609 350.002L114.329 350.266C108.671 390.09 127.29 429.06 145.01 454.224C147.646 457.96 150.251 461.381 152.741 464.451C157.963 470.835 162.71 475.737 166.305 478.779Z" fill="#FF3CC1"/>
<path d="M102.535 312.511C102.673 309.884 108.518 309.497 108.682 313.242C109.602 308.584 115.374 309.225 116.479 311.776C119.745 308.474 122.182 309.033 123.792 313.455C120.192 326.217 116.965 338.58 114.379 350.264L84.6686 350.017C90.0868 326.291 97.9372 309.547 102.535 312.511Z" fill="#974245"/>
</g>
<defs>
<clipPath id="clip0_2603_718">
<rect width="621.788" height="576.058" fill="white" transform="translate(-21.3701 134.223) rotate(-12.4663)"/>
</clipPath>
</defs>
</svg>
